# xmcd
# 
# Track frame offsets:
#     150
#     10695
#     21800
#     33765
#     46655
#     57531
#     69796
#     83266
#     95347
#     108684
#     120855
#     132468
# 
# Disc length: 1948
# 
# Revision: 1
# Processed by: cddbd v1.5.2PL0 Copyright (c) Steve Scherf et al.
# Submitted via: fre:ac v1.0.17
# 
DISCID=84079a0c
DTITLE=Legendary Country (Various) - Lovesick Country
DYEAR=0
DGENRE=Country
TTITLE0=Patsy Cline - Lovesick Blues
TTITLE1=Marty Robbins - Singing The Blues
TTITLE2=Jim Reeves - Mexican Joe
TTITLE3=Merle Travis - Sixteen Tons
TTITLE4=Gene Autry - You Are My Sunshine
TTITLE5=Roy Acuff - The Great Speckled Bird
TTITLE6=Jimmie Rodgers - Mule Skinner Blues (Blue Yodel #8)
TTITLE7=The Delmore Brothers - I'm Lonesome Without You
TTITLE8=The Stanley Brothers - I'm A Man Of Constant Sorrow
TTITLE9=Bob Wills and His Texas Playboys - Time Changes Everything
TTITLE10=Eddy Arnold - I Really Don't Want To Know
TTITLE11=Red Foley and Ernest Tubb with The Sunshine Trio - Goodnight Irene
EXTD=Legendary Country, disc 2 of 4, 2006, Direct Source Special Products Inc
EXTT0=
EXTT1=
EXTT2=
EXTT3=
EXTT4=
EXTT5=
EXTT6=
EXTT7=
EXTT8=
EXTT9=
EXTT10=
EXTT11=
PLAYORDER=
